<svg width="395" height="281" viewBox="0 0 395 281" fill="none" xmlns="http://www.w3.org/2000/svg">
<g clip-path="url(#clip0_4141_35)">
<path d="M295.697 38.2217C295.05 40.6819 293.61 42.8604 291.601 44.4207C288.891 46.7263 285.403 47.91 281.85 47.7298C278.297 47.5496 274.947 46.0191 272.485 43.4512C271.623 42.5818 270.555 41.9444 269.38 41.5982C268.206 41.2521 266.963 41.2084 265.767 41.4714L240.711 46.8238C237.04 47.5803 233.632 49.2913 230.832 51.7844C228.032 54.2774 225.939 57.4644 224.763 61.0242L219.302 77.4093C218.906 78.5061 218.785 79.6832 218.949 80.8376C219.114 81.9919 219.558 83.0885 220.244 84.0316C221.631 85.7889 222.546 87.8725 222.899 90.0834C223.253 92.2944 223.035 94.5592 222.265 96.6617C219.029 105.537 207.245 108.855 199.612 100.758C197.911 98.9646 196.846 96.6618 196.581 94.204C196.145 91.034 196.858 87.8125 198.591 85.1226C200.324 82.4327 202.963 80.4521 206.03 79.5393C207.371 79.1694 208.603 78.4791 209.619 77.5277C210.634 76.5762 211.403 75.3923 211.86 74.0776L217.445 57.3239C219.547 51.0293 217.882 44.093 212.229 38.563L204.459 30.9576C203.447 29.9889 202.241 29.2448 200.921 28.7742C199.601 28.3037 198.197 28.1171 196.799 28.2268C194.751 28.3778 192.696 28.0464 190.799 27.2591C188.902 26.4718 187.216 25.2506 185.876 23.6936C179.663 16.3749 182.503 4.55035 193.304 1.7922C195.667 1.19163 198.161 1.38352 200.404 2.33836C203.125 3.37515 205.435 5.2667 206.989 7.72884C208.542 10.191 209.255 13.0908 209.02 15.9926C208.569 20.8671 208.365 22.8197 214.25 29.0324L216.53 31.3945C219.704 34.5064 223.595 36.7903 227.859 38.0451C232.123 39.2999 236.631 39.4871 240.985 38.5903L264.115 33.6338C265.317 33.4192 266.444 32.8997 267.388 32.1252C268.333 31.3507 269.063 30.3469 269.508 29.2099C270.303 27.0098 271.649 25.0507 273.419 23.5205C275.188 21.9903 277.321 20.9403 279.612 20.4712C289.266 18.423 298.646 27.0115 295.697 38.2217Z" fill="#46BBE3"/>
<path d="M228.778 25.1263C231.127 26.2833 233.767 26.718 236.363 26.3753C238.959 26.0326 241.396 24.928 243.364 23.2011C245.333 21.4741 246.745 19.2023 247.423 16.6728C248.101 14.1434 248.014 11.4697 247.172 8.98978C246.331 6.50986 244.774 4.33498 242.697 2.74001C240.62 1.14504 238.117 0.201576 235.503 0.0288483C232.89 -0.143879 230.285 0.461885 228.016 1.76958C225.747 3.07728 223.917 5.02822 222.757 7.37583C221.206 10.529 220.969 14.1683 222.098 17.4958C223.227 20.8233 225.629 23.5674 228.778 25.1263Z" fill="#0A2E6C"/>
<path d="M162.42 83.3884C164.351 81.6137 165.713 79.3059 166.333 76.7571C166.952 74.2082 166.802 71.5329 165.901 69.0695C164.999 66.6062 163.387 64.4656 161.269 62.9185C159.151 61.3715 156.621 60.4876 154 60.3786C151.38 60.2697 148.785 60.9406 146.546 62.3064C144.307 63.6723 142.523 65.6717 141.42 68.0517C140.317 70.4318 139.945 73.0854 140.351 75.6769C140.757 78.2684 141.922 80.6812 143.7 82.6101C144.878 83.8908 146.296 84.9269 147.875 85.6592C149.453 86.3915 151.16 86.8056 152.899 86.8779C154.637 86.9502 156.373 86.6792 158.006 86.0805C159.64 85.4817 161.14 84.567 162.42 83.3884Z" fill="#46BBE3"/>
<path d="M195.777 128.68C194.126 128.253 192.594 127.456 191.298 126.349C190.001 125.242 188.974 123.854 188.294 122.29L185.017 115.231C181.398 107.472 180.785 98.6468 183.297 90.4621L188.663 72.6297C189.169 71.1223 190.009 69.7487 191.12 68.6114C192.231 67.4742 193.585 66.6027 195.08 66.062C196.873 65.3667 198.491 64.2841 199.817 62.8916C201.144 61.499 202.147 59.8308 202.754 58.0061C203.392 56.097 203.588 54.0677 203.326 52.0719C203.064 50.076 202.352 48.1659 201.243 46.486C200.134 44.8061 198.657 43.4004 196.925 42.3754C195.193 41.3504 193.25 40.7329 191.243 40.5696C188.729 40.3589 186.206 40.8724 183.974 42.0495C181.742 43.2266 179.894 45.0181 178.647 47.2123C177.401 49.4065 176.809 51.9116 176.94 54.4316C177.072 56.9516 177.923 59.3812 179.392 61.4333C180.282 62.6148 180.886 63.9871 181.157 65.4419C181.427 66.8967 181.355 68.3944 180.948 69.817L177.221 82.2833C175.776 87.0508 172.828 91.2229 168.817 94.1762C164.805 97.1295 159.945 98.7054 154.964 98.6683L130.073 97.3029C128.66 97.3079 127.266 96.9776 126.005 96.3391C124.745 95.7006 123.654 94.7721 122.822 93.6299C121.212 91.3445 118.92 89.6271 116.274 88.7237C113.629 87.8203 110.765 87.7773 108.093 88.6007C105.422 89.4242 103.079 91.0719 101.401 93.308C99.7232 95.544 98.7957 98.2537 98.7516 101.049C98.7076 103.844 99.5492 106.582 101.156 108.87C102.763 111.158 105.052 112.878 107.696 113.786C110.341 114.693 113.204 114.74 115.877 113.92C118.55 113.101 120.895 111.457 122.576 109.223C123.44 108.044 124.568 107.083 125.869 106.419C127.171 105.755 128.611 105.406 130.073 105.4L161.245 106.847C164.51 106.873 167.701 107.823 170.448 109.587C173.196 111.351 175.388 113.857 176.77 116.815L181.481 126.974C182.092 128.296 182.385 129.743 182.335 131.199C182.285 132.656 181.894 134.08 181.194 135.357C180.158 137.233 179.598 139.334 179.562 141.476C179.526 143.618 180.016 145.737 180.989 147.646C181.906 149.434 183.216 150.99 184.821 152.199C186.426 153.407 188.284 154.236 190.256 154.622C192.227 155.008 194.261 154.943 196.203 154.43C198.146 153.917 199.947 152.97 201.47 151.66C203.346 150.068 204.74 147.984 205.496 145.642C206.251 143.3 206.338 140.794 205.746 138.406C205.154 136.017 203.907 133.842 202.146 132.123C200.385 130.405 198.179 129.213 195.777 128.68Z" fill="#0A2E6C"/>
</g>
<g clip-path="url(#clip1_4141_35)">
<path d="M6.13672 280.047V266.357H9.21672V280.047H6.13672ZM30.8767 280.047H28.2867C27.4001 278.48 26.4434 276.934 25.4167 275.407C24.3901 273.88 23.2967 272.437 22.1367 271.077V280.047H19.0967V266.357H21.6067C22.0401 266.79 22.5201 267.324 23.0467 267.957C23.5734 268.59 24.1101 269.267 24.6567 269.987C25.2034 270.7 25.7467 271.444 26.2867 272.217C26.8267 272.99 27.3334 273.73 27.8067 274.437V266.357H30.8767V280.047ZM44.4867 277.697C44.9201 277.697 45.28 277.66 45.5667 277.587C45.8467 277.514 46.0734 277.417 46.2467 277.297C46.4134 277.17 46.5301 277.02 46.5967 276.847C46.6634 276.68 46.6967 276.49 46.6967 276.277C46.6967 275.83 46.4867 275.457 46.0667 275.157C45.6467 274.864 44.9234 274.547 43.8967 274.207C43.4434 274.047 42.9934 273.864 42.5467 273.657C42.1001 273.457 41.7001 273.2 41.3467 272.887C40.9867 272.58 40.6967 272.207 40.4767 271.767C40.25 271.32 40.1367 270.784 40.1367 270.157C40.1367 269.524 40.2567 268.954 40.4967 268.447C40.73 267.94 41.0667 267.507 41.5067 267.147C41.9401 266.794 42.4667 266.52 43.0867 266.327C43.7 266.14 44.3967 266.047 45.1767 266.047C46.0967 266.047 46.8934 266.144 47.5667 266.337C48.24 266.537 48.7934 266.754 49.2267 266.987L48.3367 269.417C47.9567 269.224 47.5334 269.05 47.0667 268.897C46.6 268.744 46.0367 268.667 45.3767 268.667C44.6367 268.667 44.1067 268.77 43.7867 268.977C43.46 269.184 43.2967 269.497 43.2967 269.917C43.2967 270.164 43.3567 270.374 43.4767 270.547C43.5967 270.72 43.7634 270.874 43.9767 271.007C44.1967 271.147 44.4501 271.274 44.7367 271.387C45.0167 271.5 45.3267 271.617 45.6667 271.737C46.3801 271.997 47.0001 272.257 47.5267 272.517C48.0534 272.77 48.49 273.07 48.8367 273.417C49.19 273.757 49.4534 274.157 49.6267 274.617C49.7934 275.077 49.8767 275.637 49.8767 276.297C49.8767 277.577 49.43 278.567 48.5367 279.267C47.6434 279.974 46.2934 280.327 44.4867 280.327C43.8801 280.327 43.3334 280.29 42.8467 280.217C42.3601 280.144 41.9267 280.054 41.5467 279.947C41.1734 279.847 40.8534 279.737 40.5867 279.617C40.3134 279.497 40.0834 279.384 39.8967 279.277L40.7667 276.827C41.18 277.054 41.6867 277.257 42.2867 277.437C42.88 277.61 43.6134 277.697 44.4867 277.697ZM63.0767 266.197C65.1167 266.197 66.6834 266.557 67.7767 267.277C68.8701 267.997 69.4167 269.174 69.4167 270.807C69.4167 272.454 68.8634 273.64 67.7567 274.367C66.6501 275.1 65.07 275.467 63.0167 275.467H62.0467V280.047H58.9667V266.557C59.6401 266.424 60.3501 266.33 61.0967 266.277C61.8501 266.224 62.5101 266.197 63.0767 266.197ZM63.2767 268.827C63.0501 268.827 62.8301 268.834 62.6167 268.847C62.3967 268.86 62.2067 268.874 62.0467 268.887V272.837H63.0167C64.0834 272.837 64.8867 272.694 65.4267 272.407C65.9667 272.114 66.2367 271.574 66.2367 270.787C66.2367 270.4 66.1667 270.084 66.0267 269.837C65.8934 269.584 65.6967 269.384 65.4367 269.237C65.1834 269.084 64.87 268.977 64.4967 268.917C64.13 268.857 63.7234 268.827 63.2767 268.827ZM78.4067 280.047V266.357H81.4867V280.047H78.4067ZM95.3767 266.197C97.43 266.197 99.0034 266.564 100.097 267.297C101.19 268.03 101.737 269.167 101.737 270.707C101.737 271.667 101.517 272.447 101.077 273.047C100.637 273.647 100.003 274.117 99.1767 274.457C99.4501 274.804 99.7367 275.197 100.037 275.637C100.343 276.077 100.643 276.537 100.937 277.017C101.237 277.497 101.523 277.997 101.797 278.517C102.077 279.037 102.333 279.547 102.567 280.047H99.1167C98.8634 279.6 98.6101 279.147 98.3567 278.687C98.0967 278.227 97.8334 277.78 97.5667 277.347C97.2934 276.907 97.0267 276.494 96.7667 276.107C96.5 275.72 96.2334 275.367 95.9667 275.047H94.4467V280.047H91.3667V266.557C92.04 266.424 92.7367 266.33 93.4567 266.277C94.1701 266.224 94.81 266.197 95.3767 266.197ZM95.5567 268.827C95.3301 268.827 95.1301 268.834 94.9567 268.847C94.7767 268.86 94.6067 268.874 94.4467 268.887V272.607H95.3167C96.4767 272.607 97.3067 272.46 97.8067 272.167C98.3067 271.88 98.5567 271.387 98.5567 270.687C98.5567 270.014 98.3034 269.537 97.7967 269.257C97.29 268.97 96.5434 268.827 95.5567 268.827ZM111.267 280.047V266.357H114.347V280.047H111.267ZM135.997 280.047H133.407C132.527 278.48 131.573 276.934 130.547 275.407C129.52 273.88 128.427 272.437 127.267 271.077V280.047H124.227V266.357H126.737C127.17 266.79 127.65 267.324 128.177 267.957C128.703 268.59 129.24 269.267 129.787 269.987C130.333 270.7 130.877 271.444 131.417 272.217C131.957 272.99 132.463 273.73 132.937 274.437V266.357H135.997V280.047ZM152.557 268.727C151.117 268.727 150.08 269.127 149.447 269.927C148.807 270.72 148.487 271.81 148.487 273.197C148.487 273.87 148.567 274.48 148.727 275.027C148.88 275.574 149.117 276.044 149.437 276.437C149.75 276.83 150.143 277.137 150.617 277.357C151.09 277.57 151.643 277.677 152.277 277.677C152.623 277.677 152.917 277.67 153.157 277.657C153.403 277.644 153.617 277.617 153.797 277.577V272.817H156.887V279.597C156.513 279.744 155.92 279.897 155.107 280.057C154.287 280.224 153.277 280.307 152.077 280.307C151.05 280.307 150.12 280.15 149.287 279.837C148.447 279.517 147.73 279.054 147.137 278.447C146.55 277.84 146.093 277.097 145.767 276.217C145.447 275.337 145.287 274.33 145.287 273.197C145.287 272.05 145.463 271.037 145.817 270.157C146.17 269.27 146.657 268.52 147.277 267.907C147.897 267.294 148.627 266.83 149.467 266.517C150.3 266.204 151.19 266.047 152.137 266.047C152.783 266.047 153.367 266.087 153.887 266.167C154.407 266.254 154.857 266.354 155.237 266.467C155.61 266.58 155.917 266.697 156.157 266.817C156.403 266.93 156.58 267.02 156.687 267.087L155.797 269.557C155.377 269.337 154.893 269.144 154.347 268.977C153.8 268.81 153.203 268.727 152.557 268.727ZM177.927 280.047V266.357H181.007V280.047H177.927ZM202.657 280.047H200.067C199.187 278.48 198.233 276.934 197.207 275.407C196.18 273.88 195.087 272.437 193.927 271.077V280.047H190.887V266.357H193.397C193.83 266.79 194.31 267.324 194.837 267.957C195.363 268.59 195.9 269.267 196.447 269.987C196.993 270.7 197.537 271.444 198.077 272.217C198.617 272.99 199.123 273.73 199.597 274.437V266.357H202.657V280.047ZM211.347 266.357H222.687V268.987H218.567V280.047H215.477V268.987H211.347V266.357ZM241.087 280.047H231.387V266.357H240.627V268.947H234.467V271.637H239.937V274.167H234.467V277.467H241.087V280.047ZM253.157 277.407H259.227V280.047H250.077V266.357H253.157V277.407ZM270.997 277.407H277.067V280.047H267.917V266.357H270.997V277.407ZM285.757 280.047V266.357H288.837V280.047H285.757ZM305.397 268.727C303.957 268.727 302.92 269.127 302.287 269.927C301.647 270.72 301.327 271.81 301.327 273.197C301.327 273.87 301.403 274.48 301.557 275.027C301.717 275.574 301.957 276.044 302.277 276.437C302.59 276.83 302.983 277.137 303.457 277.357C303.93 277.57 304.483 277.677 305.117 277.677C305.457 277.677 305.75 277.67 305.997 277.657C306.243 277.644 306.457 277.617 306.637 277.577V272.817H309.717V279.597C309.35 279.744 308.76 279.897 307.947 280.057C307.127 280.224 306.117 280.307 304.917 280.307C303.89 280.307 302.96 280.15 302.127 279.837C301.287 279.517 300.57 279.054 299.977 278.447C299.383 277.84 298.927 277.097 298.607 276.217C298.287 275.337 298.127 274.33 298.127 273.197C298.127 272.05 298.303 271.037 298.657 270.157C299.01 269.27 299.497 268.52 300.117 267.907C300.737 267.294 301.467 266.83 302.307 266.517C303.14 266.204 304.03 266.047 304.977 266.047C305.623 266.047 306.207 266.087 306.727 266.167C307.247 266.254 307.693 266.354 308.067 266.467C308.447 266.58 308.757 266.697 308.997 266.817C309.243 266.93 309.42 267.02 309.527 267.087L308.637 269.557C308.21 269.337 307.727 269.144 307.187 268.977C306.64 268.81 306.043 268.727 305.397 268.727ZM329.007 280.047H319.307V266.357H328.547V268.947H322.387V271.637H327.857V274.167H322.387V277.467H329.007V280.047ZM349.767 280.047H347.177C346.297 278.48 345.343 276.934 344.317 275.407C343.29 273.88 342.197 272.437 341.037 271.077V280.047H337.997V266.357H340.497C340.937 266.79 341.42 267.324 341.947 267.957C342.473 268.59 343.01 269.267 343.557 269.987C344.103 270.7 344.647 271.444 345.187 272.217C345.727 272.99 346.233 273.73 346.707 274.437V266.357H349.767V280.047ZM365.887 280.327C363.66 280.327 361.967 279.707 360.807 278.467C359.64 277.234 359.057 275.477 359.057 273.197C359.057 272.064 359.233 271.054 359.587 270.167C359.94 269.274 360.427 268.52 361.047 267.907C361.667 267.294 362.403 266.83 363.257 266.517C364.117 266.204 365.047 266.047 366.047 266.047C366.627 266.047 367.153 266.087 367.627 266.167C368.1 266.254 368.517 266.354 368.877 266.467C369.23 266.58 369.523 266.697 369.757 266.817C369.997 266.93 370.17 267.02 370.277 267.087L369.387 269.577C368.967 269.357 368.477 269.167 367.917 269.007C367.357 268.847 366.72 268.767 366.007 268.767C365.533 268.767 365.07 268.847 364.617 269.007C364.163 269.167 363.76 269.42 363.407 269.767C363.06 270.114 362.78 270.564 362.567 271.117C362.36 271.67 362.257 272.344 362.257 273.137C362.257 273.77 362.323 274.36 362.457 274.907C362.597 275.454 362.823 275.924 363.137 276.317C363.443 276.71 363.847 277.024 364.347 277.257C364.847 277.484 365.453 277.597 366.167 277.597C366.613 277.597 367.013 277.57 367.367 277.517C367.727 277.47 368.043 277.41 368.317 277.337C368.597 277.264 368.84 277.18 369.047 277.087C369.26 276.994 369.453 276.907 369.627 276.827L370.477 279.297C370.037 279.564 369.423 279.8 368.637 280.007C367.843 280.22 366.927 280.327 365.887 280.327ZM388.867 280.047H379.167V266.357H388.417V268.947H382.247V271.637H387.717V274.167H382.247V277.467H388.867V280.047Z" fill="#0A2E6C"/>
</g>
<g clip-path="url(#clip2_4141_35)">
<path d="M5.55 232.176L0 239.316C1.52667 240.783 3.24333 242.146 5.15 243.406C7.06333 244.666 9.20667 245.679 11.58 246.446C13.96 247.206 16.5867 247.586 19.46 247.586C24.1 247.586 27.74 246.456 30.38 244.196C33.02 241.936 34.34 238.783 34.34 234.736C34.34 232.269 33.7833 230.273 32.67 228.746C31.5567 227.219 30.0733 225.943 28.22 224.916C26.3733 223.889 24.3633 222.966 22.19 222.146C20.43 221.379 18.86 220.733 17.48 220.206C16.1 219.679 15.0433 219.076 14.31 218.396C13.5767 217.723 13.21 216.946 13.21 216.066C13.21 215.066 13.5767 214.319 14.31 213.826C15.0433 213.326 16.0567 213.076 17.35 213.076C19.2833 213.076 21.2633 213.573 23.29 214.566C25.3167 215.566 27.0633 216.859 28.53 218.446L33.55 211.396C32.2567 210.109 30.76 208.979 29.06 208.006C27.36 207.039 25.51 206.263 23.51 205.676C21.5167 205.089 19.3767 204.796 17.09 204.796C14.3833 204.796 11.93 205.223 9.73 206.076C7.53 206.923 5.78333 208.183 4.49 209.856C3.20333 211.529 2.56 213.569 2.56 215.976C2.56 218.503 3.13 220.573 4.27 222.186C5.41667 223.799 6.87 225.093 8.63 226.066C10.39 227.033 12.21 227.866 14.09 228.566C16.09 229.213 17.7333 229.829 19.02 230.416C20.3133 231.003 21.2967 231.663 21.97 232.396C22.6433 233.136 22.98 234.033 22.98 235.086C22.98 236.259 22.57 237.183 21.75 237.856C20.93 238.536 19.7567 238.876 18.23 238.876C17.0567 238.876 15.81 238.639 14.49 238.166C13.17 237.699 11.7767 236.979 10.31 236.006C8.83667 235.039 7.25 233.763 5.55 232.176ZM52.31 205.676H40.15L60.05 248.906L72.73 223.116L85.77 248.906L105.58 205.676H93.51L84.53 228.216L72.65 202.596L61.2 228.126L52.31 205.676ZM123.45 233.586C123.45 232.413 123.713 231.429 124.24 230.636C124.773 229.849 125.597 229.233 126.71 228.786C127.823 228.346 129.26 228.126 131.02 228.126C133.193 228.126 135.263 228.419 137.23 229.006C139.197 229.599 140.973 230.483 142.56 231.656V226.366C141.973 225.666 141.003 224.933 139.65 224.166C138.303 223.406 136.647 222.759 134.68 222.226C132.713 221.699 130.437 221.436 127.85 221.436C122.803 221.436 118.9 222.583 116.14 224.876C113.38 227.163 112 230.273 112 234.206C112 236.966 112.663 239.299 113.99 241.206C115.31 243.113 117.053 244.566 119.22 245.566C121.393 246.566 123.743 247.066 126.27 247.066C128.737 247.066 131.1 246.623 133.36 245.736C135.62 244.856 137.467 243.536 138.9 241.776C140.34 240.016 141.06 237.846 141.06 235.266L139.65 229.976C139.65 231.916 139.21 233.576 138.33 234.956C137.45 236.336 136.307 237.393 134.9 238.126C133.487 238.859 131.9 239.226 130.14 239.226C128.907 239.226 127.777 239.006 126.75 238.566C125.723 238.126 124.917 237.479 124.33 236.626C123.743 235.773 123.45 234.759 123.45 233.586ZM114.82 209.376L119.05 217.126C119.637 216.713 120.547 216.213 121.78 215.626C123.013 215.039 124.48 214.539 126.18 214.126C127.88 213.719 129.67 213.516 131.55 213.516C132.783 213.516 133.9 213.633 134.9 213.866C135.893 214.099 136.76 214.479 137.5 215.006C138.233 215.539 138.773 216.203 139.12 216.996C139.473 217.783 139.65 218.736 139.65 219.856V246.176H150.66V217.476C150.66 214.716 149.897 212.383 148.37 210.476C146.843 208.569 144.73 207.116 142.03 206.116C139.33 205.116 136.247 204.616 132.78 204.616C129.027 204.616 125.623 205.133 122.57 206.166C119.517 207.193 116.933 208.263 114.82 209.376ZM185.44 205.676H160.43V215.276H185.44V205.676ZM178.39 191.586H167.39V246.176H178.39V191.586ZM204.02 233.586C204.02 232.413 204.283 231.429 204.81 230.636C205.337 229.849 206.16 229.233 207.28 228.786C208.393 228.346 209.83 228.126 211.59 228.126C213.763 228.126 215.833 228.419 217.8 229.006C219.767 229.599 221.54 230.483 223.12 231.656V226.366C222.533 225.666 221.567 224.933 220.22 224.166C218.867 223.406 217.207 222.759 215.24 222.226C213.273 221.699 211 221.436 208.42 221.436C203.373 221.436 199.47 222.583 196.71 224.876C193.95 227.163 192.57 230.273 192.57 234.206C192.57 236.966 193.23 239.299 194.55 241.206C195.87 243.113 197.617 244.566 199.79 245.566C201.963 246.566 204.313 247.066 206.84 247.066C209.3 247.066 211.66 246.623 213.92 245.736C216.18 244.856 218.03 243.536 219.47 241.776C220.91 240.016 221.63 237.846 221.63 235.266L220.22 229.976C220.22 231.916 219.78 233.576 218.9 234.956C218.02 236.336 216.873 237.393 215.46 238.126C214.053 238.859 212.47 239.226 210.71 239.226C209.477 239.226 208.347 239.006 207.32 238.566C206.293 238.126 205.487 237.479 204.9 236.626C204.313 235.773 204.02 234.759 204.02 233.586ZM195.39 209.376L199.62 217.126C200.207 216.713 201.113 216.213 202.34 215.626C203.573 215.039 205.043 214.539 206.75 214.126C208.45 213.719 210.24 213.516 212.12 213.516C213.353 213.516 214.467 213.633 215.46 213.866C216.46 214.099 217.327 214.479 218.06 215.006C218.793 215.539 219.337 216.203 219.69 216.996C220.043 217.783 220.22 218.736 220.22 219.856V246.176H231.23V217.476C231.23 214.716 230.467 212.383 228.94 210.476C227.413 208.569 225.3 207.116 222.6 206.116C219.9 205.116 216.817 204.616 213.35 204.616C209.597 204.616 206.193 205.133 203.14 206.166C200.087 207.193 197.503 208.263 195.39 209.376ZM257.64 246.176V177.496H246.19V246.176H257.64ZM272.35 221.526V246.176H283.79V219.856C283.79 216.509 283.293 213.676 282.3 211.356C281.3 209.036 279.773 207.289 277.72 206.116C275.66 204.943 273.047 204.356 269.88 204.356C266.713 204.356 264.043 205.119 261.87 206.646C259.697 208.173 258.067 210.226 256.98 212.806C255.893 215.393 255.35 218.299 255.35 221.526H257.64C257.64 219.826 257.963 218.359 258.61 217.126C259.257 215.893 260.197 214.939 261.43 214.266C262.663 213.586 264.07 213.246 265.65 213.246C268.057 213.246 269.773 213.953 270.8 215.366C271.833 216.773 272.35 218.826 272.35 221.526ZM300.52 240.986C300.52 242.866 301.21 244.509 302.59 245.916C303.97 247.323 305.687 248.026 307.74 248.026C309.853 248.026 311.587 247.323 312.94 245.916C314.287 244.509 314.96 242.866 314.96 240.986C314.96 238.993 314.287 237.306 312.94 235.926C311.587 234.546 309.853 233.856 307.74 233.856C305.687 233.856 303.97 234.546 302.59 235.926C301.21 237.306 300.52 238.993 300.52 240.986ZM339.7 233.586C339.7 232.413 339.967 231.429 340.5 230.636C341.027 229.849 341.847 229.233 342.96 228.786C344.08 228.346 345.52 228.126 347.28 228.126C349.447 228.126 351.513 228.419 353.48 229.006C355.447 229.599 357.223 230.483 358.81 231.656V226.366C358.223 225.666 357.257 224.933 355.91 224.166C354.557 223.406 352.897 222.759 350.93 222.226C348.963 221.699 346.69 221.436 344.11 221.436C339.057 221.436 335.153 222.583 332.4 224.876C329.64 227.163 328.26 230.273 328.26 234.206C328.26 236.966 328.92 239.299 330.24 241.206C331.56 243.113 333.307 244.566 335.48 245.566C337.653 246.566 340 247.066 342.52 247.066C344.987 247.066 347.35 246.623 349.61 245.736C351.87 244.856 353.72 243.536 355.16 241.776C356.593 240.016 357.31 237.846 357.31 235.266L355.91 229.976C355.91 231.916 355.47 233.576 354.59 234.956C353.703 236.336 352.557 237.393 351.15 238.126C349.743 238.859 348.16 239.226 346.4 239.226C345.167 239.226 344.037 239.006 343.01 238.566C341.983 238.126 341.177 237.479 340.59 236.626C339.997 235.773 339.7 234.759 339.7 233.586ZM331.08 209.376L335.3 217.126C335.887 216.713 336.797 216.213 338.03 215.626C339.263 215.039 340.73 214.539 342.43 214.126C344.137 213.719 345.93 213.516 347.81 213.516C349.037 213.516 350.15 213.633 351.15 213.866C352.15 214.099 353.017 214.479 353.75 215.006C354.483 215.539 355.027 216.203 355.38 216.996C355.733 217.783 355.91 218.736 355.91 219.856V246.176H366.91V217.476C366.91 214.716 366.147 212.383 364.62 210.476C363.093 208.569 360.98 207.116 358.28 206.116C355.58 205.116 352.5 204.616 349.04 204.616C345.28 204.616 341.873 205.133 338.82 206.166C335.773 207.193 333.193 208.263 331.08 209.376ZM381.35 190.006C381.35 191.826 382.027 193.353 383.38 194.586C384.727 195.819 386.34 196.436 388.22 196.436C390.1 196.436 391.7 195.819 393.02 194.586C394.34 193.353 395 191.826 395 190.006C395 188.126 394.34 186.586 393.02 185.386C391.7 184.179 390.1 183.576 388.22 183.576C386.34 183.576 384.727 184.179 383.38 185.386C382.027 186.586 381.35 188.126 381.35 190.006ZM393.68 205.676H382.59V246.176H393.68V205.676Z" fill="#0A2E6C"/>
</g>
<defs>
<clipPath id="clip0_4141_35">
<rect width="197.5" height="154.87" fill="white" transform="translate(98.75)"/>
</clipPath>
<clipPath id="clip1_4141_35">
<rect width="382.73" height="14.28" fill="white" transform="translate(6.13672 266.047)"/>
</clipPath>
<clipPath id="clip2_4141_35">
<rect width="395" height="71.41" fill="white" transform="translate(0 177.496)"/>
</clipPath>
</defs>
</svg>
